<svg width="24" height="25" viewBox="0 0 24 25" fill="none" xmlns="http://www.w3.org/2000/svg">
<path d="M11.6707 18.3333C10.8075 18.332 9.95921 18.1072 9.2086 17.6808C8.45798 17.2544 7.83056 16.6409 7.3874 15.9L5.9624 16.7333C6.55568 17.7167 7.39296 18.5302 8.39307 19.0949C9.39319 19.6595 10.5222 19.9562 11.6707 19.9562C12.8192 19.9562 13.9483 19.6595 14.9484 19.0949C15.9485 18.5302 16.7858 17.7167 17.3791 16.7333L15.9541 15.9C15.5109 16.6409 14.8835 17.2544 14.1329 17.6808C13.3823 18.1072 12.534 18.332 11.6707 18.3333ZM23.3374 3.33333H20.0041V0H18.3374V3.33333H15.0041V5H18.3374V8.33333H20.0041V5H23.3374V3.33333ZM7.92074 9.16666C7.50869 9.16666 7.1059 9.28885 6.7633 9.51777C6.4207 9.74669 6.15367 10.0721 5.99599 10.4527C5.83831 10.8334 5.79705 11.2523 5.87743 11.6564C5.95782 12.0606 6.15624 12.4318 6.4476 12.7231C6.73896 13.0145 7.11017 13.2129 7.5143 13.2933C7.91843 13.3737 8.33731 13.3324 8.71799 13.1747C9.09867 13.0171 9.42405 12.75 9.65296 12.4074C9.88188 12.0648 10.0041 11.662 10.0041 11.25C10.0063 10.9758 9.95392 10.7039 9.85001 10.4501C9.7461 10.1964 9.59272 9.96581 9.39882 9.77191C9.20493 9.57801 8.97438 9.42464 8.72061 9.32073C8.46685 9.21681 8.19494 9.16444 7.92074 9.16666ZM15.4207 9.16666C15.0087 9.16666 14.6059 9.28885 14.2633 9.51777C13.9207 9.74669 13.6537 10.0721 13.496 10.4527C13.3383 10.8334 13.297 11.2523 13.3774 11.6564C13.4578 12.0606 13.6562 12.4318 13.9476 12.7231C14.239 13.0145 14.6102 13.2129 15.0143 13.2933C15.4184 13.3737 15.8373 13.3324 16.218 13.1747C16.5987 13.0171 16.924 12.75 17.153 12.4074C17.3819 12.0648 17.5041 11.662 17.5041 11.25C17.5063 10.9758 17.4539 10.7039 17.35 10.4501C17.2461 10.1964 17.0927 9.96581 16.8988 9.77191C16.7049 9.57801 16.4744 9.42464 16.2206 9.32073C15.9668 9.21681 15.6949 9.16444 15.4207 9.16666Z" fill="#136639"/>
<path d="M21.3457 10.8337C21.5562 11.6505 21.6654 12.4901 21.6707 13.3337C21.6707 15.3115 21.0842 17.2449 19.9854 18.8894C18.8865 20.5338 17.3248 21.8156 15.4975 22.5724C13.6702 23.3293 11.6596 23.5274 9.71976 23.1415C7.77995 22.7557 5.99812 21.8032 4.59959 20.4047C3.20107 19.0062 2.24866 17.2244 1.86281 15.2846C1.47696 13.3447 1.67499 11.3341 2.43187 9.50682C3.18874 7.67956 4.47047 6.11778 6.11496 5.01896C7.75945 3.92015 9.69285 3.33366 11.6707 3.33366V1.66699C9.25564 1.66617 6.89988 2.41481 4.9284 3.80965C2.95691 5.20448 1.46687 7.17675 0.663845 9.45435C-0.139177 11.732 -0.215601 14.2026 0.445117 16.5255C1.10584 18.8484 2.47113 20.909 4.35264 22.423C6.23415 23.937 8.53913 24.8298 10.9496 24.9783C13.36 25.1267 15.7572 24.5234 17.8102 23.2517C19.8633 21.98 21.4711 20.1025 22.4118 17.8782C23.3525 15.654 23.5798 13.1926 23.0623 10.8337H21.3457Z" fill="#136639"/>
</svg>
