<svg width="31" height="31" viewBox="0 0 31 31" fill="none" xmlns="http://www.w3.org/2000/svg">
<circle cx="15.5" cy="15.5" r="15" fill="white" stroke="#0039A6"/>
<path d="M15.5 25.0909L9.74819 18.3075C9.66827 18.2056 9.58917 18.1031 9.51092 18C8.5284 16.7057 7.99763 15.1249 8.00001 13.5C8.00001 11.5109 8.79018 9.60322 10.1967 8.1967C11.6032 6.79018 13.5109 6 15.5 6C17.4891 6 19.3968 6.79018 20.8033 8.1967C22.2098 9.60322 23 11.5109 23 13.5C23.0024 15.1242 22.4718 16.7043 21.4898 17.9979L21.4891 18C21.4891 18 21.2845 18.2686 21.2539 18.3048L15.5 25.0909ZM10.5991 17.1784C10.6005 17.1784 10.7586 17.3884 10.7948 17.4334L15.5 22.9827L20.2114 17.4259C20.2414 17.3884 20.4009 17.177 20.4016 17.1764C21.2042 16.1189 21.6379 14.8275 21.6364 13.5C21.6364 11.8725 20.9898 10.3117 19.8391 9.16093C18.6883 8.01014 17.1275 7.36363 15.5 7.36363C13.8725 7.36363 12.3117 8.01014 11.1609 9.16093C10.0102 10.3117 9.36364 11.8725 9.36364 13.5C9.36221 14.8283 9.79644 16.1205 10.5998 17.1784H10.5991Z" fill="black"/>
<path d="M18.9091 16.909H17.5455V11.4545H13.4545V16.909H12.0909V11.4545C12.0913 11.0929 12.2351 10.7463 12.4907 10.4906C12.7464 10.235 13.093 10.0912 13.4545 10.0908H17.5455C17.907 10.0912 18.2536 10.235 18.5093 10.4906C18.7649 10.7463 18.9087 11.0929 18.9091 11.4545V16.909Z" fill="black"/>
<path d="M14.8182 15.5456H16.1818V16.9093H14.8182V15.5456ZM14.8182 12.8184H16.1818V14.182H14.8182V12.8184Z" fill="black"/>
</svg>
