<svg width="31" height="31" viewBox="0 0 31 31" fill="none" xmlns="http://www.w3.org/2000/svg">
<circle cx="15.5" cy="15.5" r="15" fill="#0039A6" stroke="#0039A6"/>
<path d="M20.8578 8H23V10.1429H20.8578V8ZM20.8578 11.2143H23V13.3571H20.8578V11.2143ZM17.6445 8H19.7867V10.1429H17.6445V8ZM17.6445 11.2143H19.7867V13.3571H17.6445V11.2143ZM20.3223 23H20.2312C9.70776 22.3946 8.21359 13.5125 8.00473 10.8018C7.97208 10.3768 8.10952 9.9563 8.38682 9.63271C8.66411 9.30911 9.05855 9.10895 9.48337 9.07625C9.52585 9.07304 9.56852 9.07143 9.61136 9.07143H12.4337C12.6482 9.07122 12.8578 9.13545 13.0354 9.2558C13.213 9.37615 13.3504 9.54707 13.4298 9.74643L14.2438 11.75C14.3222 11.9448 14.3417 12.1583 14.2998 12.364C14.2579 12.5697 14.1565 12.7586 14.0082 12.9071L12.8675 14.0589C13.0449 15.0721 13.5296 16.0062 14.2558 16.7346C14.982 17.4629 15.9145 17.9502 16.9269 18.1304L18.089 16.9786C18.2398 16.8319 18.4304 16.7328 18.6371 16.6938C18.8437 16.6547 19.0573 16.6774 19.2512 16.7589L21.2702 17.5679C21.4665 17.6498 21.6339 17.7883 21.7513 17.9657C21.8686 18.1432 21.9304 18.3515 21.9289 18.5643V21.3929C21.9289 21.8191 21.7596 22.2279 21.4583 22.5293C21.157 22.8307 20.7484 23 20.3223 23V23ZM9.61136 10.1429C9.54103 10.1426 9.47135 10.1563 9.4063 10.183C9.34124 10.2097 9.28208 10.249 9.2322 10.2986C9.18232 10.3482 9.1427 10.4072 9.11559 10.4721C9.08848 10.537 9.07442 10.6066 9.07421 10.677C9.07421 10.692 9.07421 10.7064 9.07582 10.7214C9.32217 13.8929 10.902 21.3929 20.2901 21.9286C20.4319 21.9371 20.5712 21.8889 20.6775 21.7947C20.7837 21.7004 20.8482 21.5679 20.8567 21.4261L20.8578 21.3929V18.5643L18.8388 17.7554L17.3018 19.2821L17.0447 19.25C12.3855 18.6661 11.7535 14.0054 11.7535 13.9571L11.7214 13.7L13.2424 12.1625L12.439 10.1429H9.61136Z" fill="white"/>
</svg>
