<svg width="30" height="30" viewBox="0 0 30 30" fill="none" xmlns="http://www.w3.org/2000/svg">
<path d="M5.6286 26.0177C5.62746 26.017 5.62636 26.0162 5.6253 26.0155C2.49585 23.3491 0.5 19.3827 0.5 14.985C0.5 6.98913 6.99565 0.5 15 0.5C23.0043 0.5 29.5 6.98913 29.5 14.985C29.5 19.3869 27.5001 23.3575 24.4204 26.0578L24.3033 26.1604C24.1981 26.2407 24.0878 26.3219 23.9738 26.4057L23.9535 26.4206C23.8251 26.515 23.6921 26.6128 23.5644 26.7108C23.4771 26.7663 23.4006 26.8256 23.3431 26.8701L23.3339 26.8772C23.2637 26.9316 23.2186 26.9656 23.1728 26.9931L23.1609 27.0003L23.1494 27.008C20.7534 28.6326 17.925 29.5006 15.0301 29.5H15.0299C12.1421 29.5006 9.32034 28.6368 6.92801 27.0198C6.90748 27.003 6.88364 26.9828 6.85717 26.9603C6.75754 26.8759 6.62081 26.7599 6.48408 26.6753C6.22587 26.494 5.98958 26.312 5.74735 26.1238C5.697 26.0635 5.64581 26.0292 5.6286 26.0177ZM15 28.6119H15.0008C17.8099 28.6074 20.5495 27.7384 22.8476 26.1228L23.1004 25.945L23.0544 25.6394C22.9592 25.0064 22.8 24.4005 22.576 23.8244L22.5762 23.8243L22.571 23.8119C22.1567 22.8262 21.581 21.9614 20.8436 21.2239L20.8436 21.2239L20.8363 21.2168C19.2677 19.7108 17.1733 18.8765 14.9989 18.8912C14.2665 18.89 13.5371 18.986 12.8299 19.1766L12.8284 19.177C12.1326 19.3668 11.4917 19.6222 10.8795 19.9767L10.8794 19.9765L10.8693 19.9827C10.3002 20.3305 9.73082 20.7706 9.25216 21.2482C8.73507 21.7342 8.31765 22.282 7.96776 22.8862C7.60701 23.5066 7.32807 24.1711 7.13788 24.8631L7.13775 24.8631L7.13493 24.8744L7.12944 24.8963C7.07227 25.1248 7.00721 25.3849 6.97386 25.6517L6.93659 25.9499L7.18235 26.1227C9.39144 27.6765 12.0709 28.6119 15 28.6119ZM9.9518 14.437L9.95228 14.4369C10.2161 15.0892 10.6087 15.6816 11.1067 16.1788L11.1093 16.1814C11.6128 16.6767 12.2022 17.0764 12.8486 17.3608L12.8486 17.3609L12.8599 17.3656C14.2214 17.9251 15.7486 17.9251 17.1101 17.3656L17.1101 17.3657L17.1214 17.3608C17.7678 17.0764 18.3572 16.6767 18.8607 16.1814L18.8607 16.1815L18.8661 16.176C19.3616 15.6732 19.7616 15.0846 20.0466 14.4387C20.3491 13.7679 20.48 13.0669 20.48 12.3169C20.48 11.5994 20.3493 10.8677 20.046 10.1936L20.0457 10.193C19.7537 9.5461 19.3608 8.95436 18.8636 8.45707L18.8628 8.45633C18.3658 7.96141 17.7743 7.56863 17.1252 7.27654C16.4522 6.97371 15.7509 6.8425 15 6.8425C14.2808 6.8425 13.5491 6.97313 12.8748 7.27654C12.2265 7.56829 11.6343 7.95918 11.1364 8.45707C10.6395 8.95405 10.2464 9.54391 9.95404 10.1936C9.65105 10.8669 9.52033 11.5976 9.52 12.3142C9.51237 13.0443 9.65953 13.7678 9.9518 14.437ZM23.83 24.2358V25.395L24.684 24.5387C27.2136 22.0024 28.6359 18.5677 28.64 14.9856V14.985C28.64 7.48589 22.5057 1.35812 15 1.35812C7.49432 1.35812 1.36 7.48589 1.36 14.985C1.36 18.722 2.88851 22.0821 5.34437 24.5671L6.2 25.4329V24.2384L6.20798 24.2124C6.48101 23.323 6.8922 22.4822 7.42648 21.7206C7.96926 20.9786 8.62541 20.2964 9.36486 19.7276L9.36622 19.7265C9.93625 19.2849 10.5567 18.9126 11.2147 18.6174L12.0613 18.2376L11.2784 17.7394C10.9774 17.5478 10.7062 17.3323 10.4636 17.0896C10.026 16.652 9.64383 16.2105 9.37708 15.7303L9.37186 15.7209L9.36624 15.7117C9.06302 15.2173 8.84002 14.69 8.67076 14.0976L8.67081 14.0976L8.66879 14.0909C8.50365 13.5422 8.42 12.9609 8.42002 12.3469L8.41998 12.342C8.41137 11.4644 8.58177 10.5942 8.92078 9.78474C9.24983 9.00571 9.72339 8.29601 10.3164 7.69314L10.3179 7.69167C10.9105 7.08429 11.6196 6.60271 12.4026 6.27578L12.403 6.27564C13.2141 5.93632 14.0859 5.76575 14.9651 5.77435L14.9651 5.77445L14.9752 5.77435C15.854 5.7652 16.7255 5.93506 17.5366 6.27357C18.3157 6.6025 19.0255 7.07575 19.6288 7.6684C20.2319 8.26663 20.7143 8.97529 21.0496 9.75574C21.3884 10.565 21.5586 11.4347 21.55 12.312L21.5499 12.312L21.55 12.3237C21.5663 13.507 21.2487 14.6708 20.6337 15.6818C20.3249 16.1823 19.9573 16.6441 19.5387 17.0573L19.5387 17.0572L19.5324 17.0637C19.2938 17.3079 19.0297 17.5259 18.7447 17.7139L17.9773 18.2201L18.8193 18.5892C19.4758 18.8769 20.0966 19.2399 20.6694 19.6708L20.6695 19.6708C21.4168 20.2329 22.0681 20.9123 22.5981 21.6828L22.5989 21.684C23.1209 22.4379 23.5283 23.2649 23.8079 24.138C23.8141 24.1786 23.8229 24.2122 23.83 24.2358Z" fill="#0039A6" stroke="#0039A6"/>
</svg>
