<svg width="67" height="67" viewBox="0 0 67 67" fill="none" xmlns="http://www.w3.org/2000/svg">
<path d="M67 33.4665C67 14.9913 51.992 0 33.5 0C15.008 0 0 14.9913 0 33.4665C0 43.6421 4.623 52.8127 11.859 58.9684C11.926 59.0354 11.993 59.0354 11.993 59.1024C12.596 59.5714 13.199 60.0404 13.869 60.5094C14.204 60.7104 14.472 60.9742 14.807 61.2422C20.3432 64.9957 26.8783 67.0015 33.567 67C40.2557 67.0015 46.7908 64.9957 52.327 61.2422C52.662 61.0412 52.93 60.7774 53.265 60.5722C53.868 60.1074 54.538 59.6384 55.141 59.1694C55.208 59.1024 55.275 59.1024 55.275 59.0354C62.377 52.8086 67 43.6421 67 33.4665ZM33.5 62.7832C27.202 62.7832 21.44 60.7732 16.683 57.4274C16.75 56.8914 16.884 56.3596 17.018 55.8236C17.4172 54.3709 18.0028 52.9761 18.76 51.6738C19.497 50.4007 20.368 49.2617 21.44 48.2568C22.445 47.2518 23.651 46.3179 24.857 45.5809C26.13 44.8439 27.47 44.3079 28.944 43.9059C30.4295 43.5055 31.9615 43.3042 33.5 43.3071C38.0671 43.2748 42.4664 45.0267 45.761 48.1898C47.302 49.7308 48.508 51.5398 49.379 53.6126C49.848 54.8186 50.183 56.0916 50.384 57.4274C45.4393 60.9037 39.5444 62.7736 33.5 62.7832ZM23.249 31.7957C22.6587 30.444 22.3618 28.9825 22.378 27.5077C22.378 26.0379 22.646 24.5639 23.249 23.2239C23.852 21.8839 24.656 20.6821 25.661 19.6771C26.666 18.6721 27.872 17.8722 29.212 17.2693C30.552 16.6663 32.026 16.3982 33.5 16.3982C35.041 16.3982 36.448 16.6663 37.788 17.2693C39.128 17.8722 40.334 18.6763 41.339 19.6771C42.344 20.6821 43.148 21.8881 43.751 23.2239C44.354 24.5639 44.622 26.0379 44.622 27.5077C44.622 29.0487 44.354 30.4557 43.751 31.7915C43.1691 33.1117 42.3517 34.3149 41.339 35.3425C40.3111 36.3537 39.1078 37.1696 37.788 37.7503C35.0193 38.8881 31.9137 38.8881 29.145 37.7503C27.8251 37.1696 26.6219 36.3537 25.594 35.3425C24.5798 34.3299 23.782 33.1218 23.249 31.7915V31.7957ZM54.337 54.0146C54.337 53.8806 54.27 53.8136 54.27 53.6796C53.611 51.5834 52.6398 49.5985 51.389 47.7919C50.137 45.972 48.5984 44.3669 46.833 43.0391C45.4847 42.0248 44.0233 41.1704 42.478 40.4931C43.181 40.0293 43.8324 39.4917 44.421 38.8893C45.4199 37.9032 46.2971 36.801 47.034 35.6063C48.5179 33.1684 49.2842 30.3614 49.245 27.5077C49.2657 25.3952 48.8554 23.3006 48.039 21.3521C47.233 19.4746 46.0729 17.7699 44.622 16.3313C43.1733 14.9076 41.4683 13.771 39.597 12.9812C37.6452 12.1663 35.548 11.7574 33.433 11.7794C31.3178 11.7587 29.2205 12.1691 27.269 12.9854C25.3815 13.7735 23.6724 14.9342 22.244 16.3982C20.8204 17.8454 19.6837 19.549 18.894 21.4191C18.0776 23.3676 17.6673 25.4622 17.688 27.5747C17.688 29.0487 17.889 30.4557 18.291 31.7915C18.693 33.1985 19.229 34.4715 19.966 35.6733C20.636 36.8793 21.574 37.9513 22.579 38.9563C23.182 39.5593 23.852 40.0911 24.589 40.5601C23.0389 41.2555 21.577 42.1327 20.234 43.1731C18.492 44.5131 16.951 46.1169 15.678 47.8589C14.4145 49.658 13.4422 51.6449 12.797 53.7466C12.73 53.8806 12.73 54.0146 12.73 54.0816C7.437 48.7257 4.154 41.4981 4.154 33.4665C4.154 17.3363 17.353 4.14981 33.5 4.14981C49.647 4.14981 62.846 17.3363 62.846 33.4665C62.8372 41.1713 59.7779 48.5592 54.337 54.0146Z" fill="#266498"/>
</svg>
