<svg width="20" height="19" viewBox="0 0 20 19" fill="none" xmlns="http://www.w3.org/2000/svg">
<path d="M16.0025 12.0024C15.2169 12.0031 14.4629 12.3119 13.9025 12.8624L6.00247 9.34243V8.67243L13.9025 5.14243C14.3973 5.62745 15.0447 5.92624 15.7349 5.98805C16.425 6.04985 17.1152 5.87087 17.6884 5.4815C18.2615 5.09213 18.6822 4.51637 18.8789 3.85202C19.0757 3.18767 19.0365 2.47569 18.7679 1.83699C18.4993 1.19829 18.0178 0.672264 17.4054 0.348245C16.7929 0.0242268 16.0872 -0.0778041 15.4081 0.0594817C14.7289 0.196768 14.1182 0.564905 13.6797 1.10137C13.2412 1.63784 13.0019 2.30955 13.0025 3.00243V3.34243L5.10247 6.86243C4.68083 6.44819 4.14622 6.16773 3.56574 6.05626C2.98526 5.94479 2.38479 6.00729 1.8397 6.2359C1.29462 6.46451 0.829213 6.84905 0.501912 7.34124C0.174611 7.83344 0 8.41135 0 9.00243C0 9.59352 0.174611 10.1714 0.501912 10.6636C0.829213 11.1558 1.29462 11.5404 1.8397 11.769C2.38479 11.9976 2.98526 12.0601 3.56574 11.9486C4.14622 11.8371 4.68083 11.5567 5.10247 11.1424L13.0025 14.6724V15.0024C13.0025 15.5958 13.1784 16.1758 13.5081 16.6691C13.8377 17.1625 14.3062 17.547 14.8544 17.7741C15.4026 18.0011 16.0058 18.0605 16.5877 17.9448C17.1697 17.829 17.7042 17.5433 18.1238 17.1238C18.5434 16.7042 18.8291 16.1696 18.9448 15.5877C19.0606 15.0058 19.0012 14.4026 18.7741 13.8544C18.5471 13.3062 18.1625 12.8377 17.6692 12.508C17.1758 12.1784 16.5958 12.0024 16.0025 12.0024Z" fill="black"/>
</svg>
