<svg width="17" height="20" viewBox="0 0 17 20" fill="none" xmlns="http://www.w3.org/2000/svg">
<path d="M14.2701 10.6822L7.63033 17.7834C6.90195 18.5624 5.91405 19 4.88396 19C3.85387 19 2.86597 18.5624 2.13759 17.7834C1.4092 17.0044 1 15.9478 1 14.8462C1 13.7445 1.4092 12.688 2.13759 11.909L11.5799 1.81068C11.8204 1.55358 12.1059 1.34966 12.4201 1.21056C12.7343 1.07146 13.071 0.999914 13.4111 1C13.7512 1.00009 14.0879 1.0718 14.402 1.21106C14.7162 1.35032 15.0016 1.55438 15.242 1.81161C15.4824 2.06883 15.6731 2.37418 15.8031 2.71022C15.9332 3.04625 16.0001 3.40639 16 3.77008C15.9999 4.13376 15.9329 4.49387 15.8027 4.82984C15.6724 5.16581 15.4816 5.47106 15.2411 5.72817L5.79194 15.8339M5.7997 15.8246L5.79107 15.8339M10.7099 6.65769L3.96908 13.8668C3.732 14.1268 3.59994 14.4761 3.60137 14.8392C3.60279 15.2024 3.73757 15.5505 3.97667 15.8083C4.21577 16.0662 4.54004 16.2133 4.8796 16.2179C5.21915 16.2225 5.5468 16.0843 5.79194 15.8329" stroke="#D52B1E" stroke-linecap="round" stroke-linejoin="round"/>
</svg>
