<svg width="34" height="34" viewBox="0 0 34 34" fill="none"  xmlns="http://www.w3.org/2000/svg">
<circle cx="17" cy="17" r="17" fill="white"/>
<path d="M17 0C26.3925 0 34 7.6075 34 17C34 26.3925 26.3925 34 17 34C7.6075 34 0 26.3925 0 17C0 7.6075 7.6075 0 17 0ZM17 29.75C24.0338 29.75 29.75 24.0338 29.75 17C29.75 9.96625 24.0338 4.25 17 4.25C9.96625 4.25 4.25 9.96625 4.25 17C4.25 24.0338 9.96625 29.75 17 29.75ZM15.4912 18.5088C15.64 18.615 15.7888 18.7212 15.98 18.8275L15.9375 18.87L25.5 23.375L19.0613 16.5963L17 6.375L14.9387 16.5963H14.96C14.96 16.6388 14.9388 16.7025 14.9175 16.7875C14.8963 16.8725 14.875 16.9363 14.875 17C14.875 17.595 15.0875 18.105 15.4912 18.5088Z" fill="#136639"/>
</svg>
