<svg width="40" height="40" viewBox="0 0 40 40" fill="none" xmlns="http://www.w3.org/2000/svg">
<circle cx="20" cy="20" r="18.5" stroke="white" stroke-width="3"/>
<path d="M27.68 27.2H12.32C11.8108 27.2 11.3224 26.9998 10.9624 26.6435C10.6023 26.2872 10.4 25.8039 10.4 25.3V13.8174C10.4216 13.3279 10.6333 12.8656 10.9911 12.527C11.3488 12.1883 11.825 11.9995 12.32 12H27.68C28.1892 12 28.6776 12.2002 29.0377 12.5565C29.3977 12.9128 29.6 13.3961 29.6 13.9V25.3C29.6 25.8039 29.3977 26.2872 29.0377 26.6435C28.6776 26.9998 28.1892 27.2 27.68 27.2ZM12.32 15.6746V25.3H27.68V15.6746L20 20.74L12.32 15.6746ZM13.088 13.9L20 18.46L26.912 13.9H13.088Z" fill="white"/>
</svg>
