<svg width="40" height="40" viewBox="0 0 40 40" fill="none" xmlns="http://www.w3.org/2000/svg">
<path d="M11.1799 25.9482V25.9479C11.1801 25.8272 11.2059 25.708 11.2558 25.598C11.3053 25.4888 11.3774 25.3913 11.4673 25.3119C12.0174 24.8124 12.4988 24.2421 12.8987 23.6159C13.3384 22.7527 13.6026 21.8108 13.6759 20.8448V17.8905V17.8902H13.9259C13.9228 16.3216 14.4882 14.805 15.5174 13.6213C16.5467 12.4376 17.9701 11.667 19.5239 11.4522L11.1799 25.9482ZM11.1799 25.9482V26.7642C11.1799 26.9897 11.2695 27.2059 11.4289 27.3653C11.5883 27.5247 11.8045 27.6142 12.0299 27.6142H28.7099C28.9354 27.6142 29.1516 27.5247 29.311 27.3653C29.4704 27.2059 29.5599 26.9897 29.5599 26.7642V25.9482V25.9479M11.1799 25.9482L29.5599 25.9479M29.5599 25.9479C29.5598 25.8272 29.5339 25.708 29.4841 25.598C29.4344 25.4885 29.362 25.3907 29.2718 25.3112C28.7133 24.8132 28.224 24.2428 27.8168 23.6151L29.5599 25.9479ZM19.2739 10.6662V11.238L27.0399 17.8909L26.7899 17.8902H27.0399V17.8905C27.044 16.2491 26.4485 14.6626 25.3654 13.4293C24.3308 12.2511 22.9194 11.4725 21.3759 11.2238V10.6662C21.3759 10.3875 21.2652 10.1202 21.0681 9.92306C20.871 9.72596 20.6037 9.61523 20.3249 9.61523C20.0462 9.61523 19.7789 9.72596 19.5818 9.92307C19.3847 10.1202 19.2739 10.3875 19.2739 10.6662ZM27.0399 20.8448C27.0397 20.8418 27.0395 20.8387 27.0392 20.8356L26.7899 20.8542H27.0399V20.8448ZM26.3925 24.4977C26.7106 25.0016 27.073 25.4757 27.4754 25.9142H13.2705C13.6728 25.4757 14.0353 25.0016 14.3534 24.4977L14.3582 24.4899L14.3625 24.4819C14.9582 23.365 15.3058 22.1327 15.3815 20.8692L15.3819 20.8617V20.8542V17.8902H15.3821L15.3818 17.8818C15.3591 17.2121 15.4715 16.5448 15.7121 15.9194C15.9527 15.2941 16.3167 14.7236 16.7824 14.2418C17.2481 13.7601 17.806 13.377 18.4229 13.1154C19.0397 12.8537 19.7029 12.7189 20.3729 12.7189C21.043 12.7189 21.7062 12.8537 22.323 13.1154C22.9398 13.377 23.4977 13.7601 23.9634 14.2418C24.4291 14.7236 24.7932 15.2941 25.0338 15.9194C25.2744 16.5448 25.3867 17.2121 25.3641 17.8818L25.3639 17.8818V17.8902V20.8542V20.8617L25.3644 20.8692C25.4401 22.1327 25.7876 23.365 26.3833 24.4819L26.3876 24.4899L26.3925 24.4977Z" fill="white" stroke="white" stroke-width="0.5"/>
<mask id="path-2-inside-1_8_1104" fill="white">
<path d="M20.4 29.368C20.778 29.3593 21.1407 29.2172 21.424 28.9668C21.7072 28.7165 21.8929 28.374 21.948 28H18.792C18.8487 28.3842 19.043 28.7347 19.3388 28.9863C19.6346 29.238 20.0117 29.3736 20.4 29.368Z"/>
</mask>
<path d="M20.4 29.368C20.778 29.3593 21.1407 29.2172 21.424 28.9668C21.7072 28.7165 21.8929 28.374 21.948 28H18.792C18.8487 28.3842 19.043 28.7347 19.3388 28.9863C19.6346 29.238 20.0117 29.3736 20.4 29.368Z" fill="white"/>
<path d="M21.948 28L30.8518 29.3122L32.3716 19H21.948V28ZM18.792 28V19H8.36667L9.88838 29.3137L18.792 28ZM20.6072 38.3656C23.1085 38.308 25.5089 37.3676 27.3837 35.7108L15.4642 22.2229C16.7724 21.0668 18.4474 20.4106 20.1928 20.3704L20.6072 38.3656ZM27.3837 35.7108C29.2586 34.054 30.487 31.7875 30.8518 29.3122L13.0442 26.6878C13.2987 24.9605 14.1559 23.379 15.4642 22.2229L27.3837 35.7108ZM21.948 19H18.792V37H21.948V19ZM9.88838 29.3137C10.2635 31.8562 11.5494 34.1759 13.507 35.8413L25.1706 22.1314C26.5365 23.2935 27.4338 24.9122 27.6956 26.6863L9.88838 29.3137ZM13.507 35.8413C15.4645 37.5066 17.9603 38.4042 20.5301 38.3671L20.2699 20.3689C22.0631 20.343 23.8046 20.9693 25.1706 22.1314L13.507 35.8413Z" fill="white" mask="url(#path-2-inside-1_8_1104)"/>
<circle cx="20" cy="20" r="18.5" stroke="white" stroke-width="3"/>
</svg>
