<svg width="28" height="30" viewBox="0 0 28 30" fill="none" xmlns="http://www.w3.org/2000/svg">
<path d="M8.46686 7C7.77463 7 7.09794 6.79473 6.52237 6.41015C5.9468 6.02556 5.49819 5.47894 5.23329 4.83939C4.96838 4.19985 4.89907 3.49612 5.03412 2.81719C5.16916 2.13825 5.50251 1.51461 5.99199 1.02513C6.48147 0.535644 7.10511 0.202301 7.78405 0.0672531C8.46298 -0.0677952 9.16671 0.00151649 9.80626 0.266423C10.4458 0.53133 10.9924 0.979934 11.377 1.55551C11.7616 2.13108 11.9669 2.80777 11.9669 3.5C11.9658 4.42793 11.5967 5.31756 10.9406 5.97371C10.2844 6.62985 9.3948 6.99894 8.46686 7ZM8.46686 2C8.17019 2 7.88018 2.08798 7.63351 2.2528C7.38684 2.41762 7.19458 2.65189 7.08105 2.92598C6.96751 3.20007 6.93781 3.50167 6.99569 3.79264C7.05356 4.08361 7.19643 4.35088 7.4062 4.56066C7.61598 4.77044 7.88326 4.9133 8.17423 4.97118C8.4652 5.02906 8.7668 4.99935 9.04089 4.88582C9.31498 4.77229 9.54925 4.58003 9.71407 4.33336C9.87889 4.08668 9.96686 3.79667 9.96686 3.5C9.96634 3.10234 9.80813 2.72112 9.52694 2.43993C9.24575 2.15874 8.86453 2.00053 8.46686 2ZM20.4409 29.313L17.3069 22H10.2059C9.32437 21.9992 8.46772 21.7078 7.76863 21.1709C7.06953 20.6339 6.56699 19.8815 6.33886 19.03L4.70486 12.903C4.43845 11.9038 4.57989 10.8397 5.09805 9.94477C5.61621 9.04984 6.46866 8.39741 7.46786 8.131C8.46707 7.86459 9.53118 8.00603 10.4261 8.52419C11.321 9.04235 11.9735 9.8948 12.2399 10.894L13.0669 14H18.9669V16H11.5309L10.3079 11.41C10.1657 10.9375 9.84528 10.5388 9.4144 10.2983C8.98352 10.0578 8.47599 9.99442 7.99918 10.1215C7.52238 10.2485 7.11371 10.5561 6.85964 10.9791C6.60557 11.4021 6.52604 11.9074 6.63786 12.388L8.27086 18.514C8.38499 18.9399 8.63632 19.3163 8.98593 19.5849C9.33555 19.8535 9.76396 19.9994 10.2049 20H18.6249L22.2799 28.525L20.4409 29.313ZM27.9669 4H23.9669V1.64689e-06H21.9669V4H17.9669V6H21.9669V10H23.9669V6H27.9669V4Z" fill="#227045"/>
<path d="M15.967 26.0002H5.735C5.29427 25.9999 4.86594 25.8543 4.51644 25.5858C4.16695 25.3173 3.91581 24.941 3.802 24.5152L0 10.2582L1.933 9.74219L5.735 24.0002H15.967V26.0002Z" fill="#227045"/>
</svg>
