<svg width="53" height="53" viewBox="0 0 53 53" fill="none" xmlns="http://www.w3.org/2000/svg">
<path d="M26.5 0C21.2588 0 16.1353 1.5542 11.7774 4.46605C7.4195 7.37791 4.02292 11.5166 2.0172 16.3589C0.0114816 21.2011 -0.513306 26.5294 0.509202 31.6699C1.53171 36.8104 4.05559 41.5322 7.76168 45.2383C11.4678 48.9444 16.1896 51.4683 21.3301 52.4908C26.4706 53.5133 31.7989 52.9885 36.6411 50.9828C41.4834 48.9771 45.6221 45.5805 48.5339 41.2226C51.4458 36.8647 53 31.7412 53 26.5C52.986 19.4761 50.1895 12.7438 45.2229 7.77714C40.2562 2.81046 33.5239 0.0140059 26.5 0ZM26.5 50.88C21.6781 50.88 16.9645 49.4501 12.9552 46.7712C8.94594 44.0923 5.82109 40.2847 3.97583 35.8298C2.13056 31.375 1.64776 26.4729 2.58847 21.7437C3.52917 17.0144 5.85114 12.6703 9.26075 9.26073C12.6703 5.85113 17.0144 3.52916 21.7437 2.58845C26.473 1.64775 31.375 2.13055 35.8298 3.97582C40.2847 5.82108 44.0923 8.94592 46.7712 12.9552C49.4501 16.9645 50.88 21.6781 50.88 26.5C50.873 32.9638 48.3021 39.1609 43.7315 43.7315C39.1609 48.3021 32.9638 50.873 26.5 50.88ZM14.84 21.2C14.84 20.7807 14.9643 20.3708 15.1973 20.0222C15.4302 19.6736 15.7613 19.4018 16.1487 19.2414C16.5361 19.0809 16.9624 19.0389 17.3736 19.1207C17.7848 19.2025 18.1626 19.4044 18.4591 19.7009C18.7556 19.9974 18.9575 20.3752 19.0393 20.7864C19.1211 21.1976 19.0791 21.6239 18.9186 22.0113C18.7582 22.3987 18.4864 22.7298 18.1378 22.9627C17.7892 23.1957 17.3793 23.32 16.96 23.32C16.3977 23.32 15.8585 23.0966 15.4609 22.6991C15.0634 22.3015 14.84 21.7623 14.84 21.2ZM33.92 21.2C33.92 20.7807 34.0443 20.3708 34.2773 20.0222C34.5102 19.6736 34.8413 19.4018 35.2287 19.2414C35.6161 19.0809 36.0424 19.0389 36.4536 19.1207C36.8648 19.2025 37.2426 19.4044 37.5391 19.7009C37.8356 19.9974 38.0375 20.3752 38.1193 20.7864C38.2011 21.1976 38.1591 21.6239 37.9986 22.0113C37.8382 22.3987 37.5664 22.7298 37.2178 22.9627C36.8692 23.1957 36.4593 23.32 36.04 23.32C35.4777 23.32 34.9385 23.0966 34.5409 22.6991C34.1434 22.3015 33.92 21.7623 33.92 21.2ZM38.425 33.39C37.2198 35.4874 35.4827 37.2299 33.389 38.4416C31.2953 39.6532 28.919 40.2913 26.5 40.2913C24.081 40.2913 21.7047 39.6532 19.611 38.4416C17.5173 37.2299 15.7802 35.4874 14.575 33.39C14.492 33.2696 14.4349 33.1334 14.4071 32.9899C14.3793 32.8464 14.3815 32.6987 14.4135 32.5561C14.4456 32.4135 14.5068 32.279 14.5932 32.1612C14.6797 32.0433 14.7897 31.9447 14.9161 31.8714C15.0426 31.798 15.1829 31.7517 15.3281 31.7352C15.4733 31.7187 15.6204 31.7324 15.7601 31.7755C15.8998 31.8185 16.0291 31.89 16.1398 31.9855C16.2505 32.0809 16.3403 32.1982 16.4035 32.33C17.4271 34.1019 18.8989 35.5732 20.6712 36.5962C22.4434 37.6191 24.4537 38.1576 26.5 38.1576C28.5463 38.1576 30.5566 37.6191 32.3288 36.5962C34.1011 35.5732 35.5729 34.1019 36.5965 32.33C36.6597 32.1982 36.7495 32.0809 36.8602 31.9855C36.971 31.89 37.1002 31.8185 37.2399 31.7755C37.3796 31.7324 37.5267 31.7187 37.6719 31.7352C37.8172 31.7517 37.9574 31.798 38.0839 31.8714C38.2103 31.9447 38.3203 32.0433 38.4068 32.1612C38.4933 32.279 38.5544 32.4135 38.5865 32.5561C38.6185 32.6987 38.6207 32.8464 38.5929 32.9899C38.5651 33.1334 38.508 33.2696 38.425 33.39Z" fill="black"/>
</svg>
