<svg width="15" height="22" viewBox="0 0 15 22" fill="none" xmlns="http://www.w3.org/2000/svg">
<path d="M4.35355 0.646446C4.15829 0.451184 3.84171 0.451184 3.64645 0.646446L0.464466 3.82843C0.269204 4.02369 0.269204 4.34027 0.464466 4.53553C0.659728 4.7308 0.976311 4.7308 1.17157 4.53553L4 1.70711L6.82843 4.53553C7.02369 4.7308 7.34027 4.7308 7.53553 4.53553C7.7308 4.34027 7.7308 4.02369 7.53553 3.82843L4.35355 0.646446ZM4.5 13L4.5 1H3.5L3.5 13H4.5Z" fill="#136639"/>
<path d="M10.6464 21.3536C10.8417 21.5488 11.1583 21.5488 11.3536 21.3536L14.5355 18.1716C14.7308 17.9763 14.7308 17.6597 14.5355 17.4645C14.3403 17.2692 14.0237 17.2692 13.8284 17.4645L11 20.2929L8.17157 17.4645C7.97631 17.2692 7.65973 17.2692 7.46447 17.4645C7.2692 17.6597 7.2692 17.9763 7.46447 18.1716L10.6464 21.3536ZM11.5 21V10H10.5V21H11.5Z" fill="#0039A6"/>
</svg>
